<?xml version="1.0" encoding="UTF-8"?>
<svg id="_Слой_1" data-name="Слой_1" xmlns="http://www.w3.org/2000/svg" version="1.1" viewBox="0 0 1920 1080">
  <!-- Generator: Adobe Illustrator 29.1.0, SVG Export Plug-In . SVG Version: 2.1.0 Build 142)  -->
  <defs>
    <style>
      .st0 {
        fill: #fff;
      }
    </style>
  </defs>
  <path class="st0" d="M1319.4,180.6v718.8h-718.8V180.6h718.8ZM1254.7,381.9l-161.7-158.1h-427.7l71.8,82.7,203.5,5,80.5,70.4h233.6ZM787.5,849.1v-233.6l-70.4-80.5-2.9-212.7-70.4-69.8v434.9l143.8,161.7ZM974.4,381.9c-2.5-9.9-43.5-43.1-46.7-43.1h-154.5l32.3,43.1h168.9ZM787.5,568.8v-168.9c0-2.9-35.1-35.6-43.1-39.5v161.7c0,3.2,33.2,44.2,43.1,46.7ZM1003.1,410.6h-186.9v186.9h186.9v-186.9ZM1276.3,410.6h-244.4v71.9h136.6l-21.5-25.3,17.8-17.8,53.5,60.1-53.5,54.9-17.8-17.8,21.5-25.3h-136.6v104.2l-10.8,10.8h-104.2v136.6l25.3-21.5,17.8,17.8-60.1,53.5-54.9-53.5,17.8-17.8,25.3,21.5v-136.6h-71.9v244.4h449.3l10.8-10.8v-449.3Z"/>
  <polygon points="1276.3 410.6 1276.3 859.9 1265.5 870.7 816.2 870.7 816.2 626.3 888.1 626.3 888.1 762.8 862.9 741.3 845 759.1 899.9 812.6 960 759.1 942.1 741.3 916.9 762.8 916.9 626.3 1021.1 626.3 1031.9 615.5 1031.9 511.2 1168.5 511.2 1146.9 536.5 1164.8 554.3 1218.3 499.5 1164.8 439.4 1146.9 457.2 1168.5 482.5 1031.9 482.5 1031.9 410.6 1276.3 410.6"/>
  <polygon points="1254.7 381.9 1021.1 381.9 940.6 311.5 737.1 306.4 665.3 223.7 1093 223.7 1254.7 381.9"/>
  <polygon points="787.5 849.1 643.7 687.4 643.7 252.5 714.1 322.2 717.1 534.9 787.5 615.5 787.5 849.1"/>
  <rect x="816.2" y="410.6" width="186.9" height="186.9"/>
  <path d="M787.5,568.8c-9.9-2.5-43.1-43.5-43.1-46.7v-161.7c8,3.9,43.1,36.6,43.1,39.5v168.9Z"/>
  <path d="M974.4,381.9h-168.9l-32.3-43.1h154.5c3.2,0,44.2,33.2,46.7,43.1Z"/>
</svg>