<?xml version="1.0" encoding="UTF-8"?>
<svg id="_Слой_1" data-name="Слой_1" xmlns="http://www.w3.org/2000/svg" version="1.1" viewBox="0 0 1920 1080">
  <!-- Generator: Adobe Illustrator 29.1.0, SVG Export Plug-In . SVG Version: 2.1.0 Build 142)  -->
  <defs>
    <style>
      .st0 {
        fill: #fff;
      }
    </style>
  </defs>
  <path class="st0" d="M1392.7,107.3v865.5h-865.5V107.3h865.5ZM1150.4,925.1v-502c0-3.1-37.6-25.5-47.3-39.3-46.9-66.5-15.5-171.2,75.5-153.6,37,7.2,81.2,49.6,45.3,84.7-24.8,5.7-19.6-75.5-81.9-47.4-75.3,33.9,15.9,191.1,129,111.8,91.5-64.2,54.7-211.2-50.8-233.5-115.2-24.4-219.5,73.7-225.9,186.1l-68.1-.5c-6.6-88.6-80.3-177.2-170.3-188.8-137.7-17.7-219.6,146.2-112.1,233.2,109.5,88.6,213.6-72.7,134.3-108.4-62.3-28-57.1,53.1-81.9,47.4-30.3-28.9-5.2-63.2,26.7-77,97.7-42.1,147.7,70.5,94,145.9-15.2,21.3-41.6,24.3-47.3,47.9l4,325c11.8,17.9,174.8,40.5,185,53.1,4.5,5.6-1.8,23.9,9.9,37.6s72,25,76.5,31.9-.4,23.5,5.7,32.9c7,10.8,92.6,37.3,99.8,13ZM1063.9,141.9h-207.7l64.4,69.8c18.1,9.7,24.9,92.5,43.7,86,4.1-1.4,21.9-63.7,31.9-80.7,17.7-30.2,45.7-49.2,67.7-75.1Z"/>
  <path d="M1150.4,925.1c-7.2,24.3-92.8-2.1-99.8-13-6.1-9.4-1.2-26.1-5.7-32.9s-64-17.3-76.5-31.9-5.4-32-9.9-37.6c-10.2-12.6-173.1-35.2-185-53.1l-4-325c5.8-23.6,32.2-26.5,47.3-47.9,53.7-75.4,3.6-188-94-145.9-31.9,13.7-56.9,48-26.7,77,24.8,5.7,19.6-75.5,81.9-47.4,79.3,35.7-24.8,197-134.3,108.4-107.5-87-25.5-250.9,112.1-233.2,90.1,11.6,163.7,100.1,170.3,188.8l68.1.5c6.3-112.4,110.7-210.5,225.9-186.1,105.5,22.3,142.3,169.3,50.8,233.5-113.1,79.4-204.4-77.8-129-111.8,62.3-28.1,57.1,53.1,81.9,47.4,35.9-35-8.2-77.5-45.3-84.7-90.9-17.6-122.3,87.1-75.5,153.6,9.7,13.8,47.3,36.2,47.3,39.3v502ZM925.4,765v-281.3c0-3.9-8.5-14-11.1-19.3-11-10.3-31-11.2-43.5-3-30.6,19.9-6.8,227.7-15.2,273.7l5.6,13.7,64.2,16.3ZM1063.9,851.6v-367.8c0-3.7-10.1-19.3-14.8-22.3l-22.9-5.4c-19.4,2.2-25.8,11.1-29.4,29.5-18.4,94.2,9.8,228.7-2.7,327.5l1.8,11.5,68.1,27.1Z"/>
  <path d="M1063.9,141.9c-22,25.9-50,44.9-67.7,75.1-10,17-27.8,79.3-31.9,80.7-18.9,6.4-25.7-76.3-43.7-86l-64.4-69.8h207.7Z"/>
  <path class="st0" d="M1063.9,851.6l-68.1-27.1-1.8-11.5c12.5-98.9-15.7-233.3,2.7-327.5,3.6-18.3,10-27.2,29.4-29.5l22.9,5.4c4.7,3,14.8,18.6,14.8,22.3v367.8Z"/>
  <path class="st0" d="M925.4,765l-64.2-16.3-5.6-13.7c8.4-46-15.4-253.8,15.2-273.7,12.5-8.1,32.5-7.3,43.5,3,2.6,5.3,11.1,15.4,11.1,19.3v281.3Z"/>
</svg>